<svg width="32" height="32" viewBox="0 0 32 32" fill="none" xmlns="http://www.w3.org/2000/svg">
<path d="M12.9118 31.8159C10.1129 31.2372 7.50115 29.9462 5.45081 28.128C0.187089 23.4602 -1.43969 16.1273 1.34102 9.60258C2.02389 8.00029 3.13405 6.37421 4.50957 4.96151L5.72226 3.71605L5.80779 11.0057C5.88966 17.9831 5.90811 18.3346 6.23867 19.2139C6.89997 20.9729 7.60893 22.0929 8.82942 23.3065C11.9821 26.4415 16.6065 27.2239 20.5377 25.2874C24.2327 23.4673 26.5622 19.5095 26.2915 15.5118C26.1096 12.8265 25.2052 10.8574 23.2525 8.89547C21.776 7.41196 20.0388 6.44293 18.1475 6.04781C16.2233 5.6458 16.3156 5.58706 16.3156 7.21334V8.61736L17.3705 8.81145C21.456 9.56309 24.158 13.5688 23.3065 17.6115C23.0345 18.9026 22.4278 20.0428 21.454 21.0931C19.974 22.6892 17.8919 23.4521 16.0738 23.4486C13.0676 23.4428 10.5574 21.7371 9.34074 19.2147C9.34074 19.2147 9.02203 18.4937 8.9196 18.0482C8.31728 15.4281 8.70228 9.91265 8.70228 9.91265L8.65564 1.84811L9.13244 1.60192C9.39468 1.46652 9.64619 1.35573 9.69135 1.35573C9.7365 1.35573 9.79383 5.05977 9.81873 9.58693C9.81873 9.58693 9.23972 15.5214 9.95524 17.7956C10.0585 18.1237 10.2545 18.6849 10.2545 18.6849C10.8817 19.9609 11.887 21.0832 13.1932 21.701C14.1847 22.17 14.6839 22.3822 16.1508 22.3822C17.1092 22.3822 17.9583 22.0801 18.9352 21.6315C20.0869 21.1026 21.4081 19.7004 21.8963 18.4201C23.2414 14.8927 21.3684 11.0977 17.7602 10.0395C16.2855 9.60702 16.3156 9.5832 16.3156 11.1843V12.5828L17.0235 12.7718C19.575 13.4532 20.3535 16.868 18.3505 18.6226C17.6428 19.2426 17.0051 19.5166 15.8896 19.5166C14.6977 19.5166 13.5535 18.7962 12.9653 17.6913C12.612 17.0276 12.5821 16.3981 12.5821 16.1097C12.5821 13.4464 12.5244 8.65638 12.5244 8.65638L12.4766 0.439831L12.843 0.348985C13.0444 0.299019 13.8587 0.175384 14.6525 0.0742392C17.3446 -0.268785 21.3275 0.610899 24.0032 2.13951C27.6511 4.22354 30.4114 7.8036 31.5606 11.9416C31.9559 13.3649 32 13.7788 32 16.0685C32 18.348 31.9549 18.7755 31.568 20.1678C30.0049 25.7918 26.0287 29.8122 20.3433 31.5173C19.1468 31.8761 18.5862 31.9446 16.4749 31.9895C14.771 32.0258 13.6667 31.972 12.9118 31.8159Z" fill="black"/>
</svg>
