<svg width="33" height="32" viewBox="0 0 33 32" fill="none" xmlns="http://www.w3.org/2000/svg">
<g clip-path="url(#clip0_48_2186)">
<path d="M13.8405 31.8155C11.0416 31.2368 8.42986 29.9458 6.37952 28.1276C1.1158 23.4598 -0.510975 16.1269 2.26973 9.60218C2.9526 7.9999 4.06276 6.37381 5.43828 4.96111L6.65097 3.71565L6.7365 11.0053C6.81837 17.9827 6.83682 18.3342 7.16738 19.2135C7.82868 20.9725 8.53764 22.0925 9.75813 23.3061C12.9108 26.4411 17.5353 27.2235 21.4664 25.2871C25.1614 23.4669 27.4909 19.5091 27.2202 15.5114C27.0384 12.8261 26.1339 10.857 24.1812 8.89508C22.7047 7.41156 20.9675 6.44253 19.0762 6.04741C17.152 5.6454 17.2443 5.58666 17.2443 7.21295V8.61697L18.2992 8.81105C22.3847 9.56269 25.0867 13.5684 24.2352 17.6111C23.9632 18.9022 23.3565 20.0424 22.3827 21.0927C20.9028 22.6888 18.8206 23.4517 17.0025 23.4482C13.9963 23.4424 11.4861 21.7367 10.2694 19.2143C10.2694 19.2143 9.95074 18.4933 9.84831 18.0478C9.24599 15.4277 9.63099 9.91225 9.63099 9.91225L9.58435 1.84771L10.0611 1.60152C10.3234 1.46612 10.5749 1.35533 10.6201 1.35533C10.6652 1.35533 10.7225 5.05937 10.7474 9.58653C10.7474 9.58653 10.1684 15.521 10.884 17.7952C10.9872 18.1233 11.1832 18.6845 11.1832 18.6845C11.8104 19.9605 12.8157 21.0828 14.1219 21.7006C15.1134 22.1696 15.6126 22.3818 17.0795 22.3818C18.0379 22.3818 18.887 22.0797 19.864 21.6311C21.0156 21.1022 22.3368 19.7 22.825 18.4197C24.1701 14.8923 22.2971 11.0973 18.6889 10.0391C17.2142 9.60662 17.2443 9.5828 17.2443 11.1839V12.5824L17.9522 12.7714C20.5037 13.4528 21.2822 16.8676 19.2792 18.6222C18.5715 19.2422 17.9338 19.5162 16.8183 19.5162C15.6264 19.5162 14.4822 18.7958 13.894 17.6909C13.5407 17.0272 13.5108 16.3977 13.5108 16.1093C13.5108 13.446 13.4531 8.65599 13.4531 8.65599L13.4053 0.439434L13.7717 0.348588C13.9731 0.298622 14.7874 0.174987 15.5812 0.0738425C18.2734 -0.269181 22.2562 0.610503 24.9319 2.13912C28.5798 4.22314 31.3401 7.8032 32.4893 11.9412C32.8846 13.3645 32.9287 13.7784 32.9287 16.0681C32.9287 18.3476 32.8837 18.7751 32.4967 20.1674C30.9336 25.7914 26.9574 29.8118 21.272 31.5169C20.0755 31.8757 19.5149 31.9442 17.4036 31.9891C15.6997 32.0254 14.5954 31.9716 13.8405 31.8155Z" fill="#C60C30"/>
</g>
<defs>
<clipPath id="clip0_48_2186">
<rect width="32" height="32" fill="white" transform="translate(0.928711)"/>
</clipPath>
</defs>
</svg>
