<svg width="130" height="24" viewBox="0 0 130 24" fill="none" xmlns="http://www.w3.org/2000/svg">
<path d="M33.8721 17.2277C34.4384 18.7662 35.7655 19.5354 37.8365 19.5354C38.4238 19.5669 39.0109 19.4715 39.5579 19.2556C40.1049 19.0397 40.599 18.7085 41.0064 18.2844L44.9794 20.5582C43.3507 22.8124 40.9473 23.9395 37.7689 23.9395C36.549 23.9968 35.3301 23.8069 34.1855 23.3813C33.0408 22.9557 31.994 22.3031 31.1079 21.4627C30.2869 20.6476 29.6419 19.6725 29.213 18.598C28.7841 17.5235 28.5803 16.3724 28.6143 15.2159C28.5796 14.0563 28.7841 12.9021 29.2148 11.825C29.6456 10.7478 30.2935 9.77088 31.1181 8.95499C31.9428 8.13902 32.9266 7.50157 34.0082 7.08227C35.0899 6.66297 36.2463 6.4708 37.4054 6.51772C38.528 6.49388 39.6429 6.70747 40.6772 7.14448C41.7114 7.58149 42.6417 8.23208 43.4071 9.05364C44.1912 9.87316 44.8061 10.8393 45.2165 11.8967C45.627 12.954 45.825 14.0819 45.7993 15.2159C45.8016 15.8829 45.7364 16.5484 45.6049 17.2024L33.8721 17.2277ZM33.7706 13.5253H40.8796C40.7151 12.7364 40.2675 12.035 39.6211 11.5538C38.9747 11.0726 38.1745 10.8447 37.3716 10.9133C36.5569 10.8394 35.7431 11.0634 35.081 11.5437C34.4189 12.024 33.9534 12.728 33.7706 13.5253Z" fill="black"/>
<path d="M59.696 6.97414H64.658V23.4998H59.696V21.9783C59.0781 22.6595 58.3156 23.1938 57.4642 23.5419C56.6129 23.89 55.6945 24.0432 54.7763 23.9901C53.7169 23.9975 52.6685 23.7745 51.7037 23.3366C50.739 22.8988 49.8809 22.2565 49.1889 21.4542C47.6324 19.7567 46.8012 17.5179 46.8727 15.2159C46.8123 12.9283 47.6427 10.7068 49.1889 9.01978C49.8794 8.21575 50.7372 7.57222 51.7023 7.1342C52.6674 6.69618 53.7166 6.47423 54.7763 6.48386C55.6945 6.43082 56.6129 6.58397 57.4642 6.93209C58.3156 7.28021 59.0781 7.81447 59.696 8.49569V6.97414ZM52.9336 18.1829C53.7113 18.8885 54.7238 19.2794 55.7738 19.2794C56.8239 19.2794 57.8364 18.8885 58.614 18.1829C58.9876 17.7885 59.2764 17.3219 59.4625 16.8115C59.6486 16.3011 59.7281 15.7581 59.696 15.2159C59.7235 14.6772 59.641 14.1386 59.4535 13.6329C59.266 13.1271 58.9775 12.6648 58.6056 12.2742C57.828 11.5685 56.8155 11.1777 55.7654 11.1777C54.7153 11.1777 53.7028 11.5685 52.9251 12.2742C52.5532 12.6648 52.2648 13.1271 52.0773 13.6329C51.8898 14.1386 51.8073 14.6772 51.8347 15.2159C51.8037 15.7587 51.8846 16.3022 52.0721 16.8125C52.2597 17.3229 52.5501 17.7893 52.9251 18.1829H52.9336Z" fill="black"/>
<path d="M79.9749 23.4999V6.97416H84.9371V23.4999H79.9749Z" fill="black"/>
<path d="M97.9886 6.97416H102.951V23.4999H97.9801V21.9783C96.9911 23.3224 95.4442 23.9901 93.2549 23.9901C92.4332 24.0102 91.6167 23.8589 90.8568 23.546C90.0977 23.2331 89.4113 22.7654 88.8424 22.1727C88.2253 21.4925 87.7511 20.6954 87.4476 19.8286C87.1442 18.9618 87.0174 18.0428 87.0757 17.1263V6.98262H92.0292V16.3993C92.0064 16.8096 92.0706 17.2201 92.216 17.6044C92.3614 17.9887 92.5854 18.3384 92.8745 18.6309C93.1501 18.8903 93.4738 19.0925 93.828 19.226C94.1822 19.3595 94.5583 19.4215 94.937 19.4086C95.3495 19.4323 95.7629 19.3692 96.1501 19.2236C96.538 19.0781 96.8905 18.8531 97.1856 18.5633C97.7874 17.8608 98.0909 16.9506 98.0309 16.0274L97.9886 6.97416Z" fill="black"/>
<path d="M123.601 6.51768C124.452 6.48243 125.3 6.63108 126.087 6.95347C126.875 7.27587 127.584 7.76443 128.166 8.3858C129.347 9.76399 129.952 11.5438 129.857 13.3562V23.4999H124.903V13.7873C124.939 13.0729 124.721 12.369 124.286 11.8008C124.072 11.562 123.808 11.3731 123.513 11.2475C123.218 11.1219 122.899 11.0626 122.579 11.0739C122.218 11.0586 121.858 11.127 121.529 11.2736C121.198 11.4202 120.906 11.6412 120.677 11.9192C120.192 12.5782 119.953 13.3853 120 14.2015V23.4999H114.971V13.7873C115.007 13.0729 114.788 12.369 114.354 11.8008C114.133 11.554 113.859 11.3604 113.553 11.2345C113.248 11.1086 112.917 11.0537 112.587 11.0739C112.226 11.0586 111.867 11.127 111.537 11.2736C111.207 11.4202 110.915 11.6412 110.685 11.9192C110.201 12.5782 109.961 13.3853 110.009 14.2015V23.4999H105.047V6.97414H110.009V8.49569C110.91 7.17702 112.387 6.51768 114.438 6.51768C115.287 6.4708 116.134 6.64753 116.893 7.03023C117.653 7.41292 118.299 7.98819 118.766 8.69856C119.808 7.24464 121.42 6.51768 123.601 6.51768Z" fill="black"/>
<path d="M77.8278 6.97416H74.7932V3.38162H69.8397V6.97416H66.805V11.8093H69.8397V23.4999H74.7932V11.8093H77.8278V6.97416Z" fill="black"/>
<path d="M5.03018 12.3503C5.02982 11.0305 5.45495 9.74574 6.24248 8.68666C7.03002 7.62756 8.13801 6.85058 9.40207 6.47098C10.6661 6.09139 12.0188 6.12942 13.2595 6.57942C14.5003 7.02942 15.5628 7.86741 16.2896 8.96907C16.4806 9.2651 16.6474 9.57609 16.7883 9.89891C17.8092 8.48564 19.099 7.28774 20.5838 6.37399L20.4823 6.20493C19.421 4.59011 17.9585 3.27861 16.238 2.39885C14.5174 1.51908 12.598 1.10122 10.6675 1.18617C8.73699 1.27113 6.8616 1.85599 5.22503 2.88349C3.58846 3.91098 2.2468 5.34588 1.3314 7.04769C0.415996 8.74946 -0.0417456 10.6599 0.00299123 12.5917C0.047728 14.5236 0.593409 16.4107 1.5866 18.0684C2.57979 19.7259 3.98645 21.0972 5.66883 22.0479C7.3512 22.9985 9.25161 23.4959 11.184 23.4914H14.2609V18.4788H11.1671C9.54096 18.4788 7.98128 17.8334 6.83063 16.6843C5.67998 15.5352 5.03242 13.9764 5.03018 12.3503Z" fill="black"/>
<path d="M21.4122 23.4999H16.3826V17.6926C16.3871 14.7332 17.5636 11.8959 19.6546 9.80164C21.7457 7.70742 24.5812 6.52665 27.5406 6.51772V11.5895C25.916 11.5917 24.3585 12.2381 23.2096 13.387C22.0609 14.5359 21.4145 16.0933 21.4122 17.718V23.4999Z" fill="black"/>
<path d="M82.4516 5.90063C84.081 5.90063 85.402 4.57981 85.402 2.95051C85.402 1.32121 84.081 0.000396729 82.4516 0.000396729C80.8223 0.000396729 79.5015 1.32121 79.5015 2.95051C79.5015 4.57981 80.8223 5.90063 82.4516 5.90063Z" fill="black"/>
</svg>
