<svg width="33" height="32" viewBox="0 0 33 32" fill="none" xmlns="http://www.w3.org/2000/svg">
<g clip-path="url(#clip0_48_2188)">
<path d="M0.928711 16C0.928711 11.7565 2.61442 7.68687 5.615 4.68629C8.61558 1.68571 12.6852 0 16.9287 0C21.1722 0 25.2418 1.68571 28.2424 4.68629C31.243 7.68687 32.9287 11.7565 32.9287 16C32.9287 20.2435 31.243 24.3131 28.2424 27.3137C25.2418 30.3143 21.1722 32 16.9287 32C12.6852 32 8.61558 30.3143 5.615 27.3137C2.61442 24.3131 0.928711 20.2435 0.928711 16Z" fill="#1A4A7F"/>
<path fill-rule="evenodd" clip-rule="evenodd" d="M14.3118 31.7841C11.1049 31.2573 8.1352 29.7641 5.7998 27.5041L20.2158 14.2721L11.9758 16.2721C11.4304 16.4061 10.8637 16.4303 10.3088 16.3431C9.75397 16.2559 9.22201 16.0592 8.74397 15.7643C8.26592 15.4694 7.85136 15.0824 7.52444 14.6256C7.19752 14.1689 6.96478 13.6517 6.8398 13.1041C6.58645 11.9898 6.78064 10.8207 7.3806 9.84817C7.98056 8.87567 8.93833 8.17756 10.0478 7.90408L27.1998 3.73608C29.2887 5.48526 30.8964 7.7389 31.8704 10.2834C32.8444 12.8279 33.1526 15.579 32.7656 18.276C32.3786 20.9729 31.3093 23.5264 29.6591 25.6943C28.0088 27.8623 25.8323 29.5729 23.3358 30.6641C23.2878 30.0961 23.3438 29.5041 23.5438 28.9281L26.2638 20.8161L14.3118 31.7841Z" fill="url(#paint0_linear_48_2188)"/>
</g>
<defs>
<linearGradient id="paint0_linear_48_2188" x1="40.1758" y1="2.02408" x2="-14.6002" y2="52.2881" gradientUnits="userSpaceOnUse">
<stop stop-color="#FFB800"/>
<stop offset="1" stop-color="#FFF11D"/>
</linearGradient>
<clipPath id="clip0_48_2188">
<rect width="32" height="32" fill="white" transform="translate(0.928711)"/>
</clipPath>
</defs>
</svg>
