<svg width="40" height="32" viewBox="0 0 40 32" fill="none" xmlns="http://www.w3.org/2000/svg">
<path fill-rule="evenodd" clip-rule="evenodd" d="M22.2128 1.55321C29.0658 1.55321 34.619 7.10967 34.619 13.9594C34.619 20.8123 29.0626 26.3656 22.2128 26.3656C18.71 26.3656 15.5483 24.9131 13.29 22.58H17.2185C17.511 22.58 17.7904 22.5378 18.0504 22.4565C19.3046 23.0739 20.7181 23.4184 22.2128 23.4184C27.4379 23.4184 31.6718 19.1812 31.6718 13.9594C31.6718 8.73436 27.4379 4.50041 22.2128 4.50041C20.6856 4.50041 19.2429 4.86434 17.9626 5.50772C17.6539 5.39074 17.3128 5.32575 16.9553 5.32575H13.3063C15.5613 2.99594 18.7197 1.55321 22.2128 1.55321Z" fill="black"/>
<path d="M8.56864 11.4021H4.94882V10.4435C4.94882 9.99512 4.90008 9.70918 4.8091 9.5857C4.71812 9.46222 4.56539 9.40374 4.35093 9.40374C4.11698 9.40374 3.94151 9.48497 3.82128 9.65394C3.70106 9.81641 3.64257 10.0666 3.64257 10.4013C3.64257 10.8335 3.7108 11.1584 3.84728 11.3761C3.9805 11.5906 4.34768 11.857 4.94882 12.169C6.6775 13.0625 7.76604 13.7969 8.21446 14.3656C8.66613 14.9374 8.89033 15.857 8.89033 17.1243C8.89033 18.0471 8.76361 18.7262 8.5134 19.1649C8.2632 19.6036 7.78229 19.9675 7.06742 20.2632C6.35256 20.5621 5.52396 20.7084 4.57189 20.7084C3.52884 20.7084 2.64175 20.5361 1.90089 20.195C1.16328 19.8538 0.685621 19.4216 0.454915 18.892C0.227457 18.3623 0.113729 17.6117 0.113729 16.6434V15.792H3.73355V17.368C3.73355 17.8522 3.78554 18.1673 3.88627 18.3038C3.987 18.4435 4.16897 18.5118 4.42567 18.5118C4.68562 18.5118 4.87734 18.424 5.00406 18.2486C5.13079 18.0731 5.19253 17.8132 5.19253 17.4687C5.19253 16.7084 5.0723 16.208 4.83184 15.974C4.58164 15.74 3.97725 15.3469 3.00894 14.7945C2.04062 14.2388 1.40374 13.8359 1.08855 13.5857C0.776604 13.3355 0.513404 12.9878 0.308692 12.5459C0.103981 12.1007 0 11.5353 0 10.8465C0 9.8554 0.146223 9.12754 0.438668 8.66937C0.731113 8.21121 1.20227 7.85378 1.85865 7.59383C2.51178 7.33387 3.29813 7.20715 4.22421 7.20715C5.23477 7.20715 6.09586 7.35012 6.80747 7.62957C7.51909 7.91227 7.99025 8.2697 8.22096 8.69862C8.45167 9.12754 8.56864 9.8554 8.56864 10.8855V11.4021ZM22.1998 0C26.0569 0 29.5467 1.56296 32.0747 4.09098C34.5995 6.61576 36.1625 10.1089 36.1625 13.9659C36.1625 16.7864 35.3274 19.4119 33.8846 21.6084L39.9285 28.195L35.7628 32.0032L29.9366 25.5922C27.7238 27.0674 25.0626 27.9318 22.2031 27.9318C18.3461 27.9318 14.8562 26.3688 12.3282 23.8408C11.9318 23.4444 11.5581 23.0219 11.2104 22.58H13.2705C13.3225 22.632 13.3745 22.6872 13.4265 22.7392C15.6718 24.9846 18.775 26.3721 22.1998 26.3721C25.6247 26.3721 28.7279 24.9846 30.9732 22.7392C33.2185 20.4939 34.606 17.3907 34.606 13.9659C34.606 10.541 33.2218 7.43785 30.9764 5.19253C28.7311 2.9472 25.6279 1.55971 22.2031 1.55971C18.7782 1.55971 15.6751 2.9472 13.4297 5.19253C13.3875 5.23477 13.342 5.28026 13.2998 5.3225H11.2299C11.5711 4.89033 11.935 4.47766 12.3249 4.09098C14.853 1.56296 18.3428 0 22.1998 0ZM10.2778 7.47035H16.9553V10.0569H14.1836V12.5296H16.7831V14.9862H14.1836V17.8359H17.2185V20.4224H10.2778V7.47035ZM27.5451 15.0642C27.5451 16.3672 27.5093 17.2868 27.4379 17.8262C27.3696 18.3688 27.1487 18.8627 26.775 19.3111C26.4013 19.7595 25.8976 20.104 25.2608 20.3444C24.6239 20.5849 23.8863 20.7051 23.0414 20.7051C22.2388 20.7051 21.5207 20.5914 20.8838 20.3639C20.247 20.1365 19.7303 19.7985 19.3436 19.3469C18.9537 18.8952 18.723 18.398 18.6483 17.8684C18.5768 17.3322 18.5378 16.3997 18.5378 15.0674V12.8513C18.5378 11.5483 18.5735 10.6288 18.645 10.0894C18.7132 9.54671 18.9374 9.0528 19.3079 8.60439C19.6783 8.15597 20.1852 7.81153 20.8221 7.57108C21.459 7.33062 22.1966 7.2104 23.0414 7.2104C23.844 7.2104 24.5621 7.32413 25.199 7.55158C25.8359 7.77904 26.3526 8.11698 26.7392 8.56864C27.1292 9.02356 27.3599 9.51746 27.4346 10.0471C27.5061 10.5833 27.5451 11.5158 27.5451 12.8481V15.0642ZM23.6393 10.8107C23.6393 10.2096 23.6003 9.82616 23.5256 9.65719C23.4509 9.49147 23.2949 9.40699 23.0609 9.40699C22.8627 9.40699 22.71 9.47522 22.6028 9.6117C22.4988 9.74492 22.4435 10.1478 22.4435 10.814V16.8611C22.4435 17.6117 22.4793 18.0764 22.5475 18.2518C22.6158 18.4305 22.7782 18.515 23.0317 18.515C23.2916 18.515 23.4574 18.4143 23.5321 18.2128C23.6068 18.0114 23.6393 17.5272 23.6393 16.7669V10.8107Z" fill="black"/>
</svg>
