<svg width="56" height="56" viewBox="0 0 56 56" fill="none" xmlns="http://www.w3.org/2000/svg">
<rect width="56" height="56" rx="8" fill="#FFC002"/>
<path d="M10.8527 20.3798H45.2093M31.6899 25.5271H42.5426M31.6899 28.876H42.5426M13.6434 16.7829C13.6434 17.031 13.4574 17.2171 13.2093 17.2171C12.8992 17.2171 12.7132 17.031 12.7132 16.7829C12.7132 16.5349 12.8992 16.2868 13.2093 16.2868C13.4574 16.2868 13.6434 16.4729 13.6434 16.7829ZM18.2946 16.7829C18.2946 17.0569 18.0725 17.2791 17.7984 17.2791C17.5244 17.2791 17.3023 17.0569 17.3023 16.7829C17.3023 16.5089 17.5244 16.2868 17.7984 16.2868C18.0725 16.2868 18.2946 16.5089 18.2946 16.7829ZM22.9457 16.7829C22.9457 17.031 22.7597 17.2791 22.4496 17.2791C22.2015 17.2791 21.9535 17.093 21.9535 16.7829C21.9535 16.5349 22.1395 16.2868 22.4496 16.2868C22.6977 16.2868 22.9457 16.4729 22.9457 16.7829ZM48 40.1628C48 41.4031 47.0078 42.3953 45.7674 42.3953H10.2326C8.99225 42.3953 8 41.4031 8 40.1628V15.2326C8 13.9922 8.99225 13 10.2326 13H45.7674C47.0078 13 48 13.9922 48 15.2326V40.1628ZM32.4961 33.8372H41.6744V37.5581H32.4961V33.8372ZM23.0078 25.5891C22.8217 26.2713 21.7674 26.8295 20.5271 26.8295C19.2868 26.8295 18.2326 26.2713 18.0465 25.5891H13.4574V29.6202H16.2481V37.5581H24.7442V29.6202H27.5349V25.5891H23.0078Z" stroke="black" stroke-width="2" stroke-miterlimit="10"/>
</svg>
