<svg width="56" height="56" viewBox="0 0 56 56" fill="none" xmlns="http://www.w3.org/2000/svg">
<rect width="56" height="56" rx="8" fill="#FFC002"/>
<g clip-path="url(#clip0_48_2092)">
<path d="M31.332 36.9997V35.9997H30.332V36.9997H31.332ZM31.332 42.833V43.833H32.332V42.833H31.332ZM10.4987 42.833H9.4987V43.833H10.4987V42.833ZM10.4987 36.9997H11.4987V35.9997H10.4987V36.9997ZM10.4987 31.1663V32.1663H11.4987V31.1663H10.4987ZM31.332 26.9997H32.332C32.332 26.4474 31.8843 25.9997 31.332 25.9997V26.9997ZM32.832 31.1663L33.5913 31.8172L33.5977 31.8095L32.832 31.1663ZM36.332 26.9997V25.9997C36.0366 25.9997 35.7563 26.1303 35.5663 26.3565L36.332 26.9997ZM17.832 32.833C17.832 33.6614 17.1605 34.333 16.332 34.333V36.333C18.265 36.333 19.832 34.766 19.832 32.833H17.832ZM16.332 34.333C15.5036 34.333 14.832 33.6614 14.832 32.833H12.832C12.832 34.766 14.399 36.333 16.332 36.333V34.333ZM14.832 32.833C14.832 32.0046 15.5036 31.333 16.332 31.333V29.333C14.399 29.333 12.832 30.9 12.832 32.833H14.832ZM16.332 31.333C17.1605 31.333 17.832 32.0046 17.832 32.833H19.832C19.832 30.9 18.265 29.333 16.332 29.333V31.333ZM26.9987 32.833C26.9987 33.6614 26.3271 34.333 25.4987 34.333V36.333C27.4317 36.333 28.9987 34.766 28.9987 32.833H26.9987ZM25.4987 34.333C24.6703 34.333 23.9987 33.6614 23.9987 32.833H21.9987C21.9987 34.766 23.5657 36.333 25.4987 36.333V34.333ZM23.9987 32.833C23.9987 32.0046 24.6703 31.333 25.4987 31.333V29.333C23.5657 29.333 21.9987 30.9 21.9987 32.833H23.9987ZM25.4987 31.333C26.3271 31.333 26.9987 32.0046 26.9987 32.833H28.9987C28.9987 30.9 27.4317 29.333 25.4987 29.333V31.333ZM17.9987 40.4997H23.832V38.4997H17.9987V40.4997ZM31.9987 33.6663V36.1663H33.9987V33.6663H31.9987ZM31.9987 36.1663C31.9987 36.1801 31.9965 36.1717 32.0055 36.1485C32.0147 36.1244 32.0327 36.0931 32.0624 36.0634C32.0921 36.0337 32.1234 36.0157 32.1475 36.0064C32.1707 35.9975 32.1791 35.9997 32.1654 35.9997V37.9997C32.6426 37.9997 33.118 37.8362 33.4766 37.4776C33.8353 37.119 33.9987 36.6436 33.9987 36.1663H31.9987ZM32.1654 35.9997H31.332V37.9997H32.1654V35.9997ZM30.332 36.9997V42.833H32.332V36.9997H30.332ZM31.332 41.833H10.4987V43.833H31.332V41.833ZM11.4987 42.833V36.9997H9.4987V42.833H11.4987ZM10.4987 35.9997H9.66536V37.9997H10.4987V35.9997ZM9.66536 35.9997C9.65165 35.9997 9.65998 35.9975 9.6832 36.0064C9.70732 36.0157 9.73863 36.0337 9.7683 36.0634C9.79798 36.0931 9.816 36.1244 9.82527 36.1485C9.8342 36.1717 9.83203 36.1801 9.83203 36.1663H7.83203C7.83203 36.6436 7.99548 37.119 8.35409 37.4776C8.7127 37.8362 9.18812 37.9997 9.66536 37.9997V35.9997ZM9.83203 36.1663V31.9997H7.83203V36.1663H9.83203ZM9.83203 31.9997C9.83203 31.986 9.8342 31.9943 9.82527 32.0175C9.816 32.0416 9.79798 32.0729 9.7683 32.1026C9.73863 32.1323 9.70732 32.1503 9.6832 32.1596C9.65998 32.1685 9.65165 32.1663 9.66536 32.1663V30.1663C9.18812 30.1663 8.7127 30.3298 8.35409 30.6884C7.99548 31.047 7.83203 31.5224 7.83203 31.9997H9.83203ZM9.66536 32.1663H10.4987V30.1663H9.66536V32.1663ZM11.4987 31.1663V27.833H9.4987V31.1663H11.4987ZM11.4987 27.833C11.4987 26.552 12.551 25.4997 13.832 25.4997V23.4997C11.4464 23.4997 9.4987 25.4474 9.4987 27.833H11.4987ZM13.832 25.4997H27.1654V23.4997H13.832V25.4997ZM21.4987 24.4997V16.9997H19.4987V24.4997H21.4987ZM46.332 11.833H29.6654V13.833H46.332V11.833ZM29.6654 11.833C29.1881 11.833 28.7127 11.9965 28.3541 12.3551C27.9955 12.7137 27.832 13.1891 27.832 13.6663H29.832C29.832 13.6526 29.8342 13.661 29.8253 13.6842C29.816 13.7083 29.798 13.7396 29.7683 13.7693C29.7386 13.799 29.7073 13.817 29.6832 13.8262C29.66 13.8352 29.6516 13.833 29.6654 13.833V11.833ZM27.832 13.6663V26.1663H29.832V13.6663H27.832ZM27.832 26.1663C27.832 26.6436 27.9955 27.119 28.3541 27.4776C28.7127 27.8362 29.1881 27.9997 29.6654 27.9997V25.9997C29.6516 25.9997 29.66 25.9975 29.6832 26.0064C29.7073 26.0157 29.7386 26.0337 29.7683 26.0634C29.798 26.0931 29.816 26.1244 29.8253 26.1485C29.8342 26.1717 29.832 26.1801 29.832 26.1663H27.832ZM29.6654 27.9997H31.332V25.9997H29.6654V27.9997ZM30.332 26.9997V30.583H32.332V26.9997H30.332ZM30.332 30.583C30.332 31.442 30.9058 32.0562 31.5231 32.3032C32.1501 32.5539 33.0086 32.4969 33.5913 31.8171L32.0728 30.5155C32.1009 30.4827 32.1493 30.454 32.1996 30.4444C32.2407 30.4366 32.2624 30.4448 32.2659 30.4462C32.2694 30.4476 32.281 30.4525 32.2961 30.4726C32.3152 30.4981 32.332 30.5394 32.332 30.583H30.332ZM33.5977 31.8095L37.0977 27.6429L35.5663 26.3565L32.0663 30.5231L33.5977 31.8095ZM36.332 27.9997H46.332V25.9997H36.332V27.9997ZM46.332 27.9997C46.8093 27.9997 47.2847 27.8362 47.6433 27.4776C48.0019 27.119 48.1654 26.6436 48.1654 26.1663H46.1654C46.1654 26.1801 46.1632 26.1717 46.1721 26.1485C46.1814 26.1244 46.1994 26.0931 46.2291 26.0634C46.2588 26.0337 46.2901 26.0157 46.3142 26.0064C46.3374 25.9975 46.3457 25.9997 46.332 25.9997V27.9997ZM48.1654 26.1663V13.6663H46.1654V26.1663H48.1654ZM48.1654 13.6663C48.1654 13.1891 48.0019 12.7137 47.6433 12.3551C47.2847 11.9965 46.8093 11.833 46.332 11.833V13.833C46.3457 13.833 46.3374 13.8352 46.3142 13.8262C46.2901 13.817 46.2588 13.799 46.2291 13.7693C46.1994 13.7396 46.1814 13.7083 46.1721 13.6842C46.1632 13.661 46.1654 13.6526 46.1654 13.6663H48.1654ZM32.9987 18.833H42.9987V16.833H32.9987V18.833ZM32.9987 22.1663H38.832V20.1663H32.9987V22.1663Z" fill="black"/>
</g>
<defs>
<clipPath id="clip0_48_2092">
<rect width="40" height="31.6667" fill="white" transform="translate(8 12)"/>
</clipPath>
</defs>
</svg>
