<svg width="56" height="56" viewBox="0 0 56 56" fill="none" xmlns="http://www.w3.org/2000/svg">
<rect width="56" height="56" rx="8" fill="#FFC002"/>
<g clip-path="url(#clip0_48_2086)">
<path d="M16.1809 12.5455H20.7264M22.5446 12.5455H27.09M28.9082 12.5455H33.4537M35.2718 12.5455H39.8173M16.1809 43.4546H20.7264M22.5446 43.4546H27.09M28.9082 43.4546H33.4537M35.2718 43.4546H39.8173M12.5446 16.1819V20.7274M12.5446 22.5455V27.091M12.5446 28.9092V33.4546M12.5446 35.2728V39.8183M43.4537 16.1819V20.7274M43.4537 22.5455V27.091M43.4537 28.9092V33.4546M43.4537 35.2728V39.8183M8.9082 8.90918H16.1809V16.1819H8.9082V8.90918ZM8.9082 39.8183H16.1809V47.091H8.9082V39.8183ZM39.8173 8.90918H47.09V16.1819H39.8173V8.90918ZM39.8173 39.8183H47.09V47.091H39.8173V39.8183Z" stroke="black" stroke-width="2" stroke-miterlimit="10"/>
</g>
<defs>
<clipPath id="clip0_48_2086">
<rect width="40" height="40" fill="white" transform="translate(8 8)"/>
</clipPath>
</defs>
</svg>
