<svg width="56" height="56" viewBox="0 0 56 56" fill="none" xmlns="http://www.w3.org/2000/svg">
<rect width="56" height="56" rx="8" fill="#FFC002"/>
<path d="M11.4983 35.1265C11.1143 35.5234 11.1248 36.1565 11.5218 36.5405C11.9188 36.9245 12.5519 36.9139 12.9358 36.5169L11.4983 35.1265ZM23.0141 24.6589L23.7276 23.9583C23.5387 23.7659 23.28 23.6579 23.0103 23.6589C22.7407 23.6599 22.4828 23.7698 22.2953 23.9637L23.0141 24.6589ZM33.209 36.4684C33.5959 36.8625 34.2291 36.8682 34.6231 36.4813C35.0172 36.0943 35.0229 35.4612 34.636 35.0671L33.209 36.4684ZM36.3844 27.7597L37.1184 27.0805C36.9291 26.8759 36.663 26.7597 36.3843 26.7597C36.1056 26.7597 35.8396 26.8761 35.6503 27.0806L36.3844 27.7597ZM10.8527 21.3798H45.2093V19.3798H10.8527V21.3798ZM12.6434 16.7829C12.6434 16.6502 12.6964 16.5018 12.8123 16.3859C12.9282 16.27 13.0766 16.2171 13.2093 16.2171V18.2171C14.0096 18.2171 14.6434 17.5833 14.6434 16.7829H12.6434ZM13.2093 16.2171C13.2539 16.2171 13.3855 16.2329 13.5176 16.3531C13.6555 16.4784 13.7132 16.6457 13.7132 16.7829H11.7132C11.7132 17.1682 11.8639 17.5526 12.1723 17.833C12.475 18.1081 12.8546 18.2171 13.2093 18.2171V16.2171ZM13.7132 16.7829C13.7132 16.902 13.6706 17.021 13.5821 17.1176C13.4817 17.2271 13.3401 17.2868 13.2093 17.2868V15.2868C12.2668 15.2868 11.7132 16.0663 11.7132 16.7829H13.7132ZM13.2093 17.2868C13.0721 17.2868 12.9048 17.2292 12.7794 17.0913C12.6593 16.9591 12.6434 16.8276 12.6434 16.7829H14.6434C14.6434 16.4282 14.5345 16.0486 14.2593 15.7459C13.9789 15.4375 13.5946 15.2868 13.2093 15.2868V17.2868ZM17.2946 16.7829C17.2946 16.5047 17.5202 16.2791 17.7984 16.2791V18.2791C18.6247 18.2791 19.2946 17.6092 19.2946 16.7829H17.2946ZM17.7984 16.2791C18.0767 16.2791 18.3023 16.5047 18.3023 16.7829H16.3023C16.3023 17.6092 16.9722 18.2791 17.7984 18.2791V16.2791ZM18.3023 16.7829C18.3023 17.0612 18.0767 17.2868 17.7984 17.2868V15.2868C16.9722 15.2868 16.3023 15.9567 16.3023 16.7829H18.3023ZM17.7984 17.2868C17.5202 17.2868 17.2946 17.0612 17.2946 16.7829H19.2946C19.2946 15.9567 18.6247 15.2868 17.7984 15.2868V17.2868ZM21.9457 16.7829C21.9457 16.6639 21.9883 16.5449 22.0768 16.4483C22.1772 16.3388 22.3188 16.2791 22.4496 16.2791V18.2791C23.3921 18.2791 23.9457 17.4996 23.9457 16.7829H21.9457ZM22.4496 16.2791C22.5687 16.2791 22.6877 16.3216 22.7843 16.4101C22.8938 16.5105 22.9535 16.6522 22.9535 16.7829H20.9535C20.9535 17.7254 21.7329 18.2791 22.4496 18.2791V16.2791ZM22.9535 16.7829C22.9535 16.902 22.9109 17.021 22.8224 17.1176C22.722 17.2271 22.5804 17.2868 22.4496 17.2868V15.2868C21.5071 15.2868 20.9535 16.0663 20.9535 16.7829H22.9535ZM22.4496 17.2868C22.3305 17.2868 22.2115 17.2443 22.115 17.1558C22.0055 17.0554 21.9457 16.9137 21.9457 16.7829H23.9457C23.9457 15.8405 23.1663 15.2868 22.4496 15.2868V17.2868ZM47 40.1628C47 40.8508 46.4555 41.3953 45.7674 41.3953V43.3953C47.56 43.3953 49 41.9554 49 40.1628H47ZM45.7674 41.3953H10.2326V43.3953H45.7674V41.3953ZM10.2326 41.3953C9.54453 41.3953 9 40.8508 9 40.1628H7C7 41.9554 8.43996 43.3953 10.2326 43.3953V41.3953ZM9 40.1628V15.2326H7V40.1628H9ZM9 15.2326C9 14.5445 9.54453 14 10.2326 14V12C8.43996 12 7 13.44 7 15.2326H9ZM10.2326 14H45.7674V12H10.2326V14ZM45.7674 14C46.4555 14 47 14.5445 47 15.2326H49C49 13.44 47.56 12 45.7674 12V14ZM47 15.2326V40.1628H49V15.2326H47ZM12.9358 36.5169L23.7329 25.3541L22.2953 23.9637L11.4983 35.1265L12.9358 36.5169ZM22.3006 25.3596L33.209 36.4684L34.636 35.0671L23.7276 23.9583L22.3006 25.3596ZM33.4163 32.4412L37.1185 28.4387L35.6503 27.0806L31.9481 31.0831L33.4163 32.4412ZM35.6504 28.4389L43.111 36.5009L44.5789 35.1425L37.1184 27.0805L35.6504 28.4389Z" fill="black"/>
</svg>
