<svg width="56" height="56" viewBox="0 0 56 56" fill="none" xmlns="http://www.w3.org/2000/svg">
<rect width="56" height="56" rx="8" fill="#FFC002"/>
<path d="M23.0074 25.8301C22.4551 25.8301 22.0074 26.2779 22.0074 26.8301C22.0074 27.3824 22.4551 27.8301 23.0074 27.8301V25.8301ZM48.7769 24.0328C49.1246 23.6037 49.0587 22.974 48.6296 22.6263C48.2005 22.2786 47.5708 22.3446 47.2231 22.7737L48.7769 24.0328ZM47.2231 30.8866C47.5708 31.3157 48.2005 31.3817 48.6296 31.034C49.0587 30.6862 49.1246 30.0565 48.7769 29.6274L47.2231 30.8866ZM40.0827 26.8301L39.2992 26.2087C39.0105 26.5727 39.0105 27.0876 39.2992 27.4515L40.0827 26.8301ZM43.5841 24.0246C43.9273 23.5919 43.8547 22.9629 43.422 22.6198C42.9893 22.2766 42.3603 22.3491 42.0171 22.7819L43.5841 24.0246ZM42.0171 30.8784C42.3603 31.3111 42.9893 31.3837 43.422 31.0405C43.8547 30.6973 43.9273 30.0683 43.5841 29.6356L42.0171 30.8784ZM9.26325 43.697C8.98497 44.1741 9.14611 44.7864 9.62316 45.0647C10.1002 45.343 10.7125 45.1818 10.9908 44.7048L9.26325 43.697ZM11.818 43.2867C12.0963 42.8097 11.9351 42.1974 11.4581 41.9191C10.981 41.6408 10.3687 41.802 10.0904 42.279L11.818 43.2867ZM34.5513 44.7048C34.8296 45.1818 35.4419 45.343 35.9189 45.0647C36.396 44.7864 36.5571 44.1741 36.2788 43.697L34.5513 44.7048ZM35.4517 42.279C35.1734 41.802 34.5611 41.6408 34.084 41.9191C33.607 42.1974 33.4458 42.8097 33.7241 43.2867L35.4517 42.279ZM36.5576 29.3728C35.4007 35.8731 29.7253 40.7784 22.8892 40.7784V42.7784C30.706 42.7784 37.2019 37.1668 38.5266 29.7232L36.5576 29.3728ZM22.8892 40.7784C15.2288 40.7784 9 34.5496 9 26.8892H7C7 35.6542 14.1242 42.7784 22.8892 42.7784V40.7784ZM9 26.8892C9 19.2288 15.2288 13 22.8892 13V11C14.1242 11 7 18.1242 7 26.8892H9ZM22.8892 13C29.7253 13 35.4007 17.9053 36.5576 24.4056L38.5266 24.0552C37.2019 16.6117 30.706 11 22.8892 11V13ZM30.6763 29.2593C29.6781 32.569 26.5739 34.9882 22.9483 34.9882V36.9882C27.4763 36.9882 31.3441 33.9716 32.5911 29.8368L30.6763 29.2593ZM22.9483 34.9882C18.4827 34.9882 14.9084 31.3634 14.9084 26.9483H12.9084C12.9084 32.4594 17.3696 36.9882 22.9483 36.9882V34.9882ZM14.9084 26.9483C14.9084 22.4827 18.5333 18.9084 22.9483 18.9084V16.9084C17.4372 16.9084 12.9084 21.3696 12.9084 26.9483H14.9084ZM22.9483 18.9084C26.5765 18.9084 29.6197 21.271 30.6172 24.5783L32.532 24.0008C31.2842 19.8635 27.4737 16.9084 22.9483 16.9084V18.9084ZM24.9 28.7818C24.4355 29.2463 23.7436 29.5524 23.0074 29.5524V31.5524C24.28 31.5524 25.4789 31.0314 26.3142 30.196L24.9 28.7818ZM23.0074 29.5524C21.5022 29.5524 20.3442 28.3564 20.3442 26.8892H18.3442C18.3442 29.4398 20.3766 31.5524 23.0074 31.5524V29.5524ZM20.3442 26.8892C20.3442 25.3841 21.5402 24.226 23.0074 24.226V22.226C20.4568 22.226 18.3442 24.2585 18.3442 26.8892H20.3442ZM23.0074 24.226C23.7689 24.226 24.3937 24.4903 24.8409 24.9375L26.2551 23.5233C25.4025 22.6707 24.2547 22.226 23.0074 22.226V24.226ZM23.0074 27.8301H45.223V25.8301H23.0074V27.8301ZM46 27.4597L48.7769 24.0328L47.2231 22.7737L44.4461 26.2006L46 27.4597ZM48.7769 29.6274L46 26.2006L44.4461 27.4597L47.2231 30.8866L48.7769 29.6274ZM40.8662 27.4515L43.5841 24.0246L42.0171 22.7819L39.2992 26.2087L40.8662 27.4515ZM43.5841 29.6356L40.8662 26.2087L39.2992 27.4515L42.0171 30.8784L43.5841 29.6356ZM10.9908 44.7048L11.818 43.2867L10.0904 42.279L9.26325 43.697L10.9908 44.7048ZM11.6558 43.6145L12.7784 41.5465L11.0207 40.5923L9.8981 42.6603L11.6558 43.6145ZM36.2788 43.697L35.4517 42.279L33.7241 43.2867L34.5513 44.7048L36.2788 43.697ZM35.644 42.6603L34.5214 40.5923L32.7637 41.5465L33.8863 43.6145L35.644 42.6603Z" fill="black"/>
</svg>
