<svg width="54" height="54" viewBox="0 0 54 54" fill="none" xmlns="http://www.w3.org/2000/svg">
<rect width="54" height="54" rx="8" fill="#FFC002"/>
<path d="M41.7818 40.0509C41.768 40.603 42.2044 41.0618 42.7565 41.0756C43.3086 41.0894 43.7674 40.653 43.7812 40.1009L41.7818 40.0509ZM43.0243 30.3642L42.68 29.4253C42.2947 29.5666 42.0348 29.9289 42.0246 30.3392L43.0243 30.3642ZM44.9211 28.3156L43.9261 28.4157L43.9272 28.4261L44.9211 28.3156ZM44.1775 20.9256L43.182 21.0205L43.1826 21.0258L44.1775 20.9256ZM35.953 20.9256L36.948 21.0258L36.9485 21.0205L35.953 20.9256ZM35.2094 28.3156L34.2144 28.2155L34.2139 28.2208L35.2094 28.3156ZM37.1062 30.3642L38.1059 30.3392C38.0957 29.9289 37.8358 29.5666 37.4505 29.4253L37.1062 30.3642ZM36.3493 40.1009C36.3631 40.653 36.8219 41.0894 37.374 41.0756C37.9261 41.0618 38.3625 40.603 38.3487 40.0509L36.3493 40.1009ZM12.3703 31.7906C12.3703 31.2383 11.9225 30.7906 11.3703 30.7906C10.818 30.7906 10.3703 31.2383 10.3703 31.7906H12.3703ZM10.3703 40.349C10.3703 40.9013 10.818 41.349 11.3703 41.349C11.9225 41.349 12.3703 40.9013 12.3703 40.349H10.3703ZM14.7102 40.349C14.7102 40.9013 15.1579 41.349 15.7102 41.349C16.2625 41.349 16.7102 40.9013 16.7102 40.349H14.7102ZM15.7102 31.7906V30.7906C15.1579 30.7906 14.7102 31.2383 14.7102 31.7906H15.7102ZM19.1548 31.7906V32.7906C19.5273 32.7906 19.8689 32.5836 20.0413 32.2534C20.2136 31.9232 20.1882 31.5245 19.9752 31.2189L19.1548 31.7906ZM13.5402 23.7329L14.3607 23.1612C14.1738 22.8931 13.8677 22.7331 13.5408 22.7329C13.214 22.7327 12.9077 22.8923 12.7205 23.1602L13.5402 23.7329ZM7.09073 31.2179C6.77442 31.6706 6.885 32.294 7.33773 32.6103C7.79046 32.9266 8.4139 32.8161 8.73021 32.3633L7.09073 31.2179ZM24.8589 24.3854C24.8589 23.8331 24.4112 23.3854 23.8589 23.3854C23.3066 23.3854 22.8589 23.8331 22.8589 24.3854H24.8589ZM22.8589 40.349C22.8589 40.9013 23.3066 41.349 23.8589 41.349C24.4112 41.349 24.8589 40.9013 24.8589 40.349H22.8589ZM27.1988 40.349C27.1988 40.9013 27.6465 41.349 28.1988 41.349C28.7511 41.349 29.1988 40.9013 29.1988 40.349H27.1988ZM28.1988 24.3854V23.3854C27.6465 23.3854 27.1988 23.8331 27.1988 24.3854H28.1988ZM31.6434 24.3854V25.3854C32.0159 25.3854 32.3575 25.1784 32.5299 24.8482C32.7023 24.518 32.6768 24.1193 32.4639 23.8137L31.6434 24.3854ZM26.0288 16.3278L26.8493 15.7561C26.6623 15.4877 26.3559 15.3278 26.0288 15.3278C25.7018 15.3278 25.3954 15.4877 25.2084 15.7561L26.0288 16.3278ZM19.5938 23.8137C19.2781 24.2669 19.3894 24.8902 19.8426 25.2059C20.2957 25.5216 20.919 25.4103 21.2347 24.9571L19.5938 23.8137ZM47 42.8391H7V44.8391H47V42.8391ZM41.8725 12.8073C41.8725 13.8028 41.0608 14.6146 40.0653 14.6146V16.6146C42.1653 16.6146 43.8725 14.9074 43.8725 12.8073H41.8725ZM40.0653 14.6146C39.0697 14.6146 38.258 13.8028 38.258 12.8073H36.258C36.258 14.9074 37.9652 16.6146 40.0653 16.6146V14.6146ZM38.258 12.8073C38.258 11.8118 39.0697 11 40.0653 11V9C37.9652 9 36.258 10.7072 36.258 12.8073H38.258ZM40.0653 11C41.0608 11 41.8725 11.8118 41.8725 12.8073H43.8725C43.8725 10.7072 42.1653 9 40.0653 9V11ZM43.7812 40.1009L44.024 30.3892L42.0246 30.3392L41.7818 40.0509L43.7812 40.1009ZM43.3685 31.3031C43.9147 31.1028 44.5424 30.768 45.0385 30.3022C45.5268 29.8436 46.0172 29.1251 45.915 28.2052L43.9272 28.4261C43.9312 28.4622 43.9284 28.601 43.6694 28.8443C43.4181 29.0802 43.0444 29.2917 42.68 29.4253L43.3685 31.3031ZM45.9161 28.2155L45.1725 20.8255L43.1826 21.0258L43.9261 28.4157L45.9161 28.2155ZM45.173 20.8308C45.0325 19.3551 43.7154 18.1806 42.2504 18.1806V20.1806C42.6973 20.1806 43.1405 20.5842 43.182 21.0205L45.173 20.8308ZM42.2504 18.1806H37.8801V20.1806H42.2504V18.1806ZM37.8801 18.1806C36.4151 18.1806 35.098 19.3551 34.9575 20.8308L36.9485 21.0205C36.99 20.5842 37.4332 20.1806 37.8801 20.1806V18.1806ZM34.958 20.8255L34.2144 28.2155L36.2044 28.4157L36.9479 21.0258L34.958 20.8255ZM34.2139 28.2208C34.1274 29.1296 34.6091 29.8411 35.0958 30.3004C35.5895 30.7664 36.2136 31.102 36.762 31.3031L37.4505 29.4253C37.0884 29.2925 36.7185 29.0819 36.4687 28.846C36.2118 28.6036 36.2004 28.4577 36.2049 28.4104L34.2139 28.2208ZM36.1065 30.3892L36.3493 40.1009L38.3487 40.0509L38.1059 30.3392L36.1065 30.3892ZM10.3703 31.7906V40.349H12.3703V31.7906H10.3703ZM16.7102 40.349V31.7906H14.7102V40.349H16.7102ZM15.7102 32.7906H19.1548V30.7906H15.7102V32.7906ZM19.9752 31.2189L14.3607 23.1612L12.7197 24.3046L18.3343 32.3623L19.9752 31.2189ZM12.7205 23.1602L7.09073 31.2179L8.73021 32.3633L14.36 24.3057L12.7205 23.1602ZM22.8589 24.3854V40.349H24.8589V24.3854H22.8589ZM29.1988 40.349V24.3854H27.1988V40.349H29.1988ZM28.1988 25.3854H31.6434V23.3854H28.1988V25.3854ZM32.4639 23.8137L26.8493 15.7561L25.2084 16.8995L30.8229 24.9571L32.4639 23.8137ZM25.2084 15.7561L19.5938 23.8137L21.2347 24.9571L26.8493 16.8995L25.2084 15.7561Z" fill="black"/>
</svg>
