<svg width="54" height="54" viewBox="0 0 54 54" fill="none" xmlns="http://www.w3.org/2000/svg">
<rect width="54" height="54" rx="8" fill="#FFC002"/>
<path d="M47 40.2619L47.9782 40.4697C48.0409 40.1746 47.967 39.867 47.7771 39.6326C47.5872 39.3981 47.3017 39.2619 47 39.2619V40.2619ZM7 40.2619V39.2619C6.69833 39.2619 6.41277 39.3981 6.2229 39.6326C6.03304 39.867 5.95914 40.1746 6.02182 40.4697L7 40.2619ZM31.1679 21.9551L32.1631 22.0533L32.1635 22.0482L31.1679 21.9551ZM30.8727 22.0836C31.4072 22.2226 31.9532 21.902 32.0922 21.3676C32.2313 20.8331 31.9107 20.287 31.3762 20.148L30.8727 22.0836ZM28.2446 19.5384L28.9563 18.8359C28.7245 18.6011 28.3919 18.4957 28.0672 18.5542C27.7425 18.6127 27.4676 18.8276 27.3324 19.1285L28.2446 19.5384ZM25.3666 19.9111C24.8212 19.998 24.4495 20.5105 24.5363 21.056C24.6232 21.6014 25.1357 21.9731 25.6811 21.8863L25.3666 19.9111ZM28.5774 11V10C28.0251 10 27.5774 10.4477 27.5774 11H28.5774ZM45.5528 11H46.5528C46.5528 10.4477 46.1051 10 45.5528 10V11ZM45.5528 21.8683V22.8683C46.1051 22.8683 46.5528 22.4206 46.5528 21.8683H45.5528ZM32.1809 29.7699L31.8944 30.728C31.9086 30.7322 31.9229 30.7362 31.9373 30.7398L32.1809 29.7699ZM30.6324 29.3068L30.9189 28.3487C30.5289 28.2321 30.107 28.3636 29.8523 28.6812L30.6324 29.3068ZM27 33.8365L26.2199 34.4621C26.4097 34.6987 26.6966 34.8365 27 34.8365C27.3034 34.8365 27.5903 34.6987 27.7801 34.4621L27 33.8365ZM23.3676 29.3068L24.1477 28.6812C23.893 28.3636 23.4711 28.2321 23.0811 28.3487L23.3676 29.3068ZM21.8191 29.7699L22.0627 30.7398C22.0771 30.7362 22.0914 30.7322 22.1056 30.728L21.8191 29.7699ZM38.4033 22.5395C38.758 22.1161 38.7023 21.4854 38.279 21.1307C37.8556 20.776 37.2249 20.8317 36.8702 21.255L38.4033 22.5395ZM34.1785 24.4678C33.8238 24.8911 33.8794 25.5218 34.3028 25.8765C34.7261 26.2312 35.3568 26.1755 35.7115 25.7522L34.1785 24.4678ZM32.2098 15.7627H42.1954V13.7627H32.2098V15.7627ZM33.7004 19.1201H42.1954V17.1201H33.7004V19.1201ZM42.2229 24.4732V37.657H44.2229V24.4732H42.2229ZM11.7771 37.657V20.1606H9.77713V37.657H11.7771ZM11.7771 20.1606C11.7771 19.4105 12.4003 18.7873 13.1505 18.7873V16.7873C11.2958 16.7873 9.77713 18.3059 9.77713 20.1606H11.7771ZM13.1505 18.7873H20.2562V16.7873H13.1505V18.7873ZM44.0188 44.5326C45.7144 44.5326 46.7213 43.3077 47.2386 42.3871C47.5094 41.9052 47.6915 41.4324 47.8057 41.0854C47.8633 40.9102 47.905 40.7626 47.933 40.6562C47.9469 40.6029 47.9575 40.5596 47.965 40.5281C47.9687 40.5123 47.9716 40.4994 47.9738 40.4896C47.9749 40.4847 47.9758 40.4806 47.9766 40.4772C47.9769 40.4756 47.9772 40.4741 47.9775 40.4729C47.9776 40.4722 47.9778 40.4717 47.9779 40.4711C47.9779 40.4709 47.978 40.4705 47.978 40.4704C47.9781 40.47 47.9782 40.4697 47 40.2619C46.0218 40.0542 46.0219 40.0539 46.0219 40.0536C46.022 40.0535 46.022 40.0532 46.0221 40.053C46.0221 40.0527 46.0222 40.0524 46.0222 40.0522C46.0223 40.0517 46.0224 40.0515 46.0224 40.0514C46.0225 40.0512 46.0223 40.0518 46.022 40.053C46.0215 40.0556 46.0202 40.0611 46.0183 40.0693C46.0145 40.0856 46.0079 40.1126 45.9984 40.1487C45.9794 40.2212 45.949 40.3292 45.9058 40.4605C45.8182 40.7268 45.6838 41.0716 45.4951 41.4074C45.0934 42.1221 44.6097 42.5326 44.0188 42.5326V44.5326ZM47 39.2619H7V41.2619H47V39.2619ZM7 40.2619C6.02182 40.4697 6.02189 40.47 6.02196 40.4704C6.02199 40.4705 6.02207 40.4709 6.02212 40.4711C6.02224 40.4717 6.02236 40.4722 6.0225 40.4729C6.02277 40.4741 6.02308 40.4756 6.02345 40.4772C6.02417 40.4806 6.02508 40.4847 6.02617 40.4896C6.02836 40.4994 6.03131 40.5123 6.03503 40.5281C6.04247 40.5596 6.05306 40.6029 6.06704 40.6562C6.09495 40.7626 6.13669 40.9102 6.19433 41.0854C6.30845 41.4324 6.49055 41.9052 6.76136 42.3871C7.27868 43.3077 8.28556 44.5326 9.98119 44.5326V42.5326C9.39028 42.5326 8.90656 42.1221 8.50492 41.4074C8.31625 41.0716 8.18178 40.7268 8.0942 40.4605C8.05099 40.3292 8.0206 40.2212 8.00159 40.1487C7.99211 40.1126 7.98554 40.0856 7.98169 40.0693C7.97977 40.0611 7.97853 40.0556 7.97795 40.053C7.97766 40.0518 7.97754 40.0512 7.97758 40.0514C7.9776 40.0515 7.97766 40.0517 7.97776 40.0522C7.97781 40.0524 7.97787 40.0527 7.97794 40.053C7.97797 40.0532 7.97804 40.0535 7.97805 40.0536C7.97812 40.0539 7.97818 40.0542 7 40.2619ZM9.98119 44.5326H44.0188V42.5326H9.98119V44.5326ZM27.0289 15.3256C24.7295 15.3256 23.1829 16.0366 22.3956 17.507C21.6898 18.8251 21.7518 20.523 21.8944 22.0482L23.8857 21.8621C23.7388 20.2903 23.7719 19.1734 24.1587 18.4511C24.464 17.8809 25.1316 17.3256 27.0289 17.3256V15.3256ZM21.8944 22.0482C22.0553 23.7703 22.6787 25.3515 23.5567 26.5236C24.4138 27.6676 25.6375 28.5702 27.0289 28.5702V26.5702C26.5246 26.5702 25.8236 26.2137 25.1574 25.3245C24.5123 24.4633 24.0142 23.2369 23.8857 21.8621L21.8944 22.0482ZM27.0289 28.5702C28.4235 28.5702 29.6436 27.6604 30.4969 26.5165C31.3716 25.344 31.9943 23.7652 32.163 22.0533L30.1727 21.857C30.0376 23.2276 29.5387 24.4563 28.8938 25.3206C28.2276 26.2137 27.5302 26.5702 27.0289 26.5702V28.5702ZM32.1635 22.0482C32.3061 20.523 32.3681 18.8251 31.6623 17.507C30.875 16.0366 29.3284 15.3256 27.0289 15.3256V17.3256C28.9263 17.3256 29.5939 17.8809 29.8992 18.4511C30.286 19.1734 30.3191 20.2903 30.1722 21.8621L32.1635 22.0482ZM31.3762 20.148C30.6241 19.9523 30.0078 19.6163 29.5773 19.3251C29.3634 19.1805 29.1999 19.0499 29.0933 18.959C29.0401 18.9136 29.0015 18.8784 28.9783 18.8567C28.9667 18.8459 28.959 18.8385 28.9553 18.8348C28.9535 18.833 28.9526 18.8322 28.9528 18.8323C28.9528 18.8324 28.9532 18.8327 28.9538 18.8333C28.9541 18.8336 28.9544 18.834 28.9548 18.8344C28.955 18.8346 28.9553 18.8348 28.9555 18.8351C28.9556 18.8352 28.9558 18.8354 28.9559 18.8355C28.9561 18.8357 28.9563 18.8359 28.2446 19.5384C27.5329 20.2408 27.5331 20.241 27.5333 20.2413C27.5334 20.2413 27.5336 20.2416 27.5337 20.2417C27.534 20.242 27.5344 20.2424 27.5347 20.2427C27.5354 20.2434 27.5362 20.2442 27.537 20.245C27.5387 20.2467 27.5406 20.2486 27.5428 20.2508C27.5472 20.2552 27.5528 20.2607 27.5594 20.2671C27.5727 20.28 27.5903 20.297 27.6123 20.3175C27.6562 20.3586 27.7174 20.4141 27.7952 20.4804C27.9504 20.6129 28.1731 20.7899 28.4568 20.9817C29.0211 21.3635 29.8448 21.8161 30.8727 22.0836L31.3762 20.148ZM28.2446 19.5384C27.3324 19.1285 27.3328 19.1278 27.3331 19.127C27.3332 19.1267 27.3336 19.126 27.3338 19.1254C27.3343 19.1244 27.3347 19.1234 27.3352 19.1224C27.3361 19.1205 27.337 19.1186 27.3378 19.1167C27.3396 19.113 27.3412 19.1095 27.3428 19.1062C27.346 19.0996 27.3488 19.0939 27.3513 19.0891C27.3564 19.0794 27.36 19.0731 27.362 19.0698C27.366 19.0631 27.3631 19.0688 27.351 19.0843C27.3273 19.1146 27.2641 19.1877 27.1392 19.2807C26.8923 19.4644 26.3695 19.7514 25.3666 19.9111L25.6811 21.8863C26.9503 21.6842 27.7879 21.291 28.3333 20.885C28.6045 20.6832 28.7955 20.484 28.927 20.3157C28.9924 20.232 29.0423 20.1568 29.0797 20.0942C29.0984 20.0628 29.1139 20.0347 29.1266 20.0102C29.133 19.998 29.1386 19.9866 29.1436 19.9763C29.1461 19.9711 29.1485 19.9661 29.1507 19.9615C29.1517 19.9591 29.1528 19.9568 29.1538 19.9546C29.1543 19.9535 29.1548 19.9524 29.1553 19.9513C29.1556 19.9508 29.1559 19.95 29.156 19.9497C29.1564 19.949 29.1567 19.9482 28.2446 19.5384ZM29.5774 13.9233V11H27.5774V13.9233H29.5774ZM28.5774 12H45.5528V10H28.5774V12ZM44.5528 11V21.8683H46.5528V11H44.5528ZM45.5528 20.8683H33.686V22.8683H45.5528V20.8683ZM36.2344 37.657V33.055H34.2344V37.657H36.2344ZM36.2344 33.055C36.2344 31.3249 35.1668 30.2362 34.2605 29.6349C33.8027 29.3311 33.3523 29.1261 33.0202 28.997C32.8526 28.9319 32.7111 28.8845 32.6083 28.8526C32.5568 28.8367 32.5147 28.8245 32.4836 28.8158C32.4681 28.8115 32.4553 28.808 32.4453 28.8054C32.4404 28.8041 32.4362 28.803 32.4327 28.8021C32.4309 28.8017 32.4294 28.8013 32.428 28.8009C32.4273 28.8007 32.4267 28.8006 32.4261 28.8004C32.4258 28.8004 32.4254 28.8003 32.4253 28.8002C32.4249 28.8001 32.4245 28.8 32.1809 29.7699C31.9373 30.7398 31.9369 30.7397 31.9366 30.7396C31.9365 30.7396 31.9361 30.7395 31.9359 30.7394C31.9355 30.7393 31.9352 30.7392 31.9349 30.7392C31.9343 30.739 31.9338 30.7389 31.9335 30.7388C31.933 30.7387 31.9331 30.7387 31.934 30.7389C31.9356 30.7394 31.9399 30.7405 31.9467 30.7424C31.9604 30.7462 31.9839 30.753 32.0159 30.7629C32.0801 30.7828 32.1771 30.8151 32.2958 30.8612C32.5362 30.9546 32.8492 31.0987 33.1548 31.3014C33.7753 31.7131 34.2344 32.267 34.2344 33.055H36.2344ZM32.4674 28.8118L30.9189 28.3487L30.3459 30.2649L31.8944 30.728L32.4674 28.8118ZM29.8523 28.6812L26.2199 33.2109L27.7801 34.4621L31.4126 29.9324L29.8523 28.6812ZM27.7801 33.2109L24.1477 28.6812L22.5874 29.9324L26.2199 34.4621L27.7801 33.2109ZM23.0811 28.3487L21.5326 28.8118L22.1056 30.728L23.6541 30.2649L23.0811 28.3487ZM21.8191 29.7699C21.5755 28.8 21.5751 28.8001 21.5747 28.8002C21.5746 28.8003 21.5742 28.8004 21.5739 28.8004C21.5733 28.8006 21.5727 28.8007 21.572 28.8009C21.5706 28.8013 21.5691 28.8017 21.5673 28.8021C21.5638 28.803 21.5596 28.8041 21.5546 28.8054C21.5447 28.808 21.5319 28.8115 21.5164 28.8158C21.4853 28.8245 21.4432 28.8367 21.3917 28.8526C21.2889 28.8845 21.1474 28.9319 20.9798 28.997C20.6477 29.1261 20.1973 29.3311 19.7395 29.6349C18.8332 30.2362 17.7656 31.3249 17.7656 33.055H19.7656C19.7656 32.267 20.2247 31.7131 20.8452 31.3014C21.1508 31.0987 21.4638 30.9546 21.7042 30.8612C21.8229 30.8151 21.9199 30.7828 21.9841 30.7629C22.0161 30.753 22.0396 30.7462 22.0533 30.7424C22.0601 30.7405 22.0644 30.7394 22.066 30.7389C22.0669 30.7387 22.067 30.7387 22.0665 30.7388C22.0662 30.7389 22.0657 30.739 22.0651 30.7392C22.0648 30.7392 22.0645 30.7393 22.0641 30.7394C22.0639 30.7395 22.0635 30.7396 22.0634 30.7396C22.0631 30.7397 22.0627 30.7398 21.8191 29.7699ZM17.7656 33.055V37.657H19.7656V33.055H17.7656ZM36.8702 21.255L34.1785 24.4678L35.7115 25.7522L38.4033 22.5395L36.8702 21.255Z" fill="black"/>
</svg>
