<svg width="56" height="56" viewBox="0 0 56 56" fill="none" xmlns="http://www.w3.org/2000/svg">
<rect width="56" height="56" rx="8" fill="#FFC002"/>
<path d="M23.0074 25.8302C22.4551 25.8302 22.0074 26.2779 22.0074 26.8302C22.0074 27.3825 22.4551 27.8302 23.0074 27.8302V25.8302ZM48.7769 24.0329C49.1246 23.6038 49.0587 22.9741 48.6296 22.6264C48.2005 22.2787 47.5708 22.3446 47.2231 22.7737L48.7769 24.0329ZM47.2231 30.8867C47.5708 31.3158 48.2005 31.3817 48.6296 31.034C49.0587 30.6863 49.1246 30.0566 48.7769 29.6275L47.2231 30.8867ZM40.0827 26.8302L39.2992 26.2088C39.0105 26.5728 39.0105 27.0876 39.2992 27.4516L40.0827 26.8302ZM43.5841 24.0247C43.9273 23.592 43.8547 22.963 43.422 22.6198C42.9893 22.2766 42.3603 22.3492 42.0171 22.7819L43.5841 24.0247ZM42.0171 30.8785C42.3603 31.3112 42.9893 31.3838 43.422 31.0406C43.8547 30.6974 43.9273 30.0684 43.5841 29.6357L42.0171 30.8785ZM9.26325 43.6971C8.98497 44.1741 9.14611 44.7865 9.62316 45.0647C10.1002 45.343 10.7125 45.1819 10.9908 44.7048L9.26325 43.6971ZM11.818 43.2868C12.0963 42.8098 11.9351 42.1974 11.4581 41.9192C10.981 41.6409 10.3687 41.802 10.0904 42.2791L11.818 43.2868ZM34.5513 44.7048C34.8296 45.1819 35.4419 45.343 35.9189 45.0647C36.396 44.7865 36.5571 44.1741 36.2788 43.6971L34.5513 44.7048ZM35.4517 42.2791C35.1734 41.802 34.5611 41.6409 34.084 41.9192C33.607 42.1974 33.4458 42.8098 33.7241 43.2868L35.4517 42.2791ZM36.5576 29.3729C35.4007 35.8732 29.7253 40.7785 22.8892 40.7785V42.7785C30.706 42.7785 37.2019 37.1668 38.5266 29.7233L36.5576 29.3729ZM22.8892 40.7785C15.2288 40.7785 9 34.5497 9 26.8893H7C7 35.6543 14.1242 42.7785 22.8892 42.7785V40.7785ZM9 26.8893C9 19.2289 15.2288 13.0001 22.8892 13.0001V11.0001C14.1242 11.0001 7 18.1243 7 26.8893H9ZM22.8892 13.0001C29.7253 13.0001 35.4007 17.9054 36.5576 24.4057L38.5266 24.0553C37.2019 16.6117 30.706 11.0001 22.8892 11.0001V13.0001ZM30.6763 29.2593C29.6781 32.5691 26.5739 34.9883 22.9483 34.9883V36.9883C27.4763 36.9883 31.3441 33.9716 32.5911 29.8368L30.6763 29.2593ZM22.9483 34.9883C18.4827 34.9883 14.9084 31.3634 14.9084 26.9484H12.9084C12.9084 32.4595 17.3696 36.9883 22.9483 36.9883V34.9883ZM14.9084 26.9484C14.9084 22.4827 18.5333 18.9085 22.9483 18.9085V16.9085C17.4372 16.9085 12.9084 21.3697 12.9084 26.9484H14.9084ZM22.9483 18.9085C26.5765 18.9085 29.6197 21.271 30.6172 24.5783L32.532 24.0008C31.2842 19.8635 27.4737 16.9085 22.9483 16.9085V18.9085ZM24.9 28.7819C24.4355 29.2464 23.7436 29.5525 23.0074 29.5525V31.5525C24.28 31.5525 25.4789 31.0314 26.3142 30.1961L24.9 28.7819ZM23.0074 29.5525C21.5022 29.5525 20.3442 28.3564 20.3442 26.8893H18.3442C18.3442 29.4399 20.3766 31.5525 23.0074 31.5525V29.5525ZM20.3442 26.8893C20.3442 25.3841 21.5402 24.2261 23.0074 24.2261V22.2261C20.4568 22.2261 18.3442 24.2585 18.3442 26.8893H20.3442ZM23.0074 24.2261C23.7689 24.2261 24.3937 24.4904 24.8409 24.9376L26.2551 23.5234C25.4025 22.6707 24.2547 22.2261 23.0074 22.2261V24.2261ZM23.0074 27.8302H45.223V25.8302H23.0074V27.8302ZM46 27.4598L48.7769 24.0329L47.2231 22.7737L44.4461 26.2006L46 27.4598ZM48.7769 29.6275L46 26.2006L44.4461 27.4598L47.2231 30.8867L48.7769 29.6275ZM40.8662 27.4516L43.5841 24.0247L42.0171 22.7819L39.2992 26.2088L40.8662 27.4516ZM43.5841 29.6357L40.8662 26.2088L39.2992 27.4516L42.0171 30.8785L43.5841 29.6357ZM10.9908 44.7048L11.818 43.2868L10.0904 42.2791L9.26325 43.6971L10.9908 44.7048ZM11.6558 43.6145L12.7784 41.5466L11.0207 40.5924L9.8981 42.6603L11.6558 43.6145ZM36.2788 43.6971L35.4517 42.2791L33.7241 43.2868L34.5513 44.7048L36.2788 43.6971ZM35.644 42.6603L34.5214 40.5924L32.7637 41.5466L33.8863 43.6145L35.644 42.6603Z" fill="black"/>
</svg>
