<svg width="56" height="56" viewBox="0 0 56 56" fill="none" xmlns="http://www.w3.org/2000/svg">
<rect x="56" y="56" width="56" height="56" rx="8" transform="rotate(180 56 56)" fill="#FFC002"/>
<path d="M27.9673 29.1136L27.2663 29.8269C27.6554 30.2092 28.2791 30.2092 28.6682 29.8269L27.9673 29.1136ZM28.9673 11.1799C28.9673 10.6276 28.5196 10.1799 27.9673 10.1799C27.415 10.1799 26.9673 10.6276 26.9673 11.1799L28.9673 11.1799ZM47.6028 13.7325L46.739 13.2286L46.7374 13.2314L47.6028 13.7325ZM29.6036 44.8221L30.4674 45.3259L30.469 45.3231L29.6036 44.8221ZM26.331 44.8221L25.4648 45.3217L25.4672 45.3259L26.331 44.8221ZM8.3972 13.7325L9.26342 13.2328L9.26098 13.2286L8.3972 13.7325ZM32.4644 26.0961C32.8583 25.709 32.8638 25.0759 32.4767 24.682C32.0896 24.288 31.4564 24.2825 31.0625 24.6697L32.4644 26.0961ZM24.872 24.6697C24.4781 24.2825 23.845 24.288 23.4578 24.682C23.0707 25.0759 23.0762 25.709 23.4701 26.0961L24.872 24.6697ZM42.8903 20.5212L31.3053 20.5212L31.3053 22.5212L42.8903 22.5212L42.8903 20.5212ZM13.0443 22.5212L24.6292 22.5212L24.6292 20.5212L13.0443 20.5212L13.0443 22.5212ZM28.9673 29.1136L28.9673 11.1799L26.9673 11.1799L26.9673 29.1136L28.9673 29.1136ZM45.9665 11.918C46.6866 11.918 46.9032 12.1564 46.9507 12.2383C46.9967 12.3175 47.0963 12.6162 46.739 13.2286L48.4666 14.2363C49.0256 13.2779 49.2234 12.1694 48.6803 11.2341C48.1388 10.3015 47.079 9.91805 45.9665 9.91805L45.9665 11.918ZM46.7374 13.2314L28.7381 44.321L30.469 45.3231L48.4682 14.2335L46.7374 13.2314ZM28.7398 44.3182C28.3828 44.9302 28.0691 45.0002 27.9673 45.0002C27.8655 45.0002 27.5518 44.9302 27.1948 44.3182L25.4672 45.3259C26.0265 46.2848 26.8909 47.0002 27.9673 47.0002C29.0436 47.0002 29.908 46.2848 30.4673 45.3259L28.7398 44.3182ZM27.1972 44.3224L9.26341 13.2328L7.53098 14.2321L25.4648 45.3217L27.1972 44.3224ZM9.26098 13.2286C8.90373 12.6162 9.00329 12.3175 9.04927 12.2383C9.09683 12.1564 9.31336 11.918 10.0335 11.918L10.0335 9.91805C8.92098 9.91805 7.8612 10.3015 7.31969 11.2341C6.77661 12.1694 6.97434 13.2779 7.53342 14.2363L9.26098 13.2286ZM10.0335 11.918L45.9665 11.918L45.9665 9.91805L10.0335 9.91805L10.0335 11.918ZM36.1487 32.1716L19.7858 32.1716L19.7858 34.1716L36.1487 34.1716L36.1487 32.1716ZM28.6682 29.8269L32.4644 26.0961L31.0625 24.6697L27.2663 28.4004L28.6682 29.8269ZM28.6682 28.4004L24.872 24.6697L23.4701 26.0961L27.2663 29.8269L28.6682 28.4004Z" fill="black"/>
</svg>
