<svg width="32" height="32" viewBox="0 0 32 32" fill="none" xmlns="http://www.w3.org/2000/svg">
<g clip-path="url(#clip0_48_2195)">
<path d="M16.7783 14.1975V25.2909H14.709V13.4189L16.7783 14.1975Z" fill="black"/>
<path d="M8.51172 13.1632C8.51172 10.3259 10.0584 8.77921 11.8717 8.77921C13.6851 8.77921 13.9411 9.03521 15.9997 10.0699C18.0584 11.1045 18.581 11.3605 19.6157 11.3605C20.6504 11.3605 21.1624 10.5819 21.1624 9.0352H22.9651C23.2211 12.1285 21.4184 13.4192 19.6051 13.4192C17.7917 13.4192 17.2797 13.1632 15.4771 12.1285C13.6744 11.0939 13.1517 10.8379 12.1171 10.8379C11.0824 10.8379 10.5704 11.6165 10.3144 13.4192L8.51172 13.1632Z" fill="black"/>
<path d="M16 32.0004C7.17867 32.0004 0 24.8217 0 16.0004C0 7.17906 7.17867 0.000396729 16 0.000396729C24.8213 0.000396729 32 7.17906 32 16.0004C32 24.8217 24.8213 32.0004 16 32.0004ZM16 1.03506C7.744 1.03506 1.03467 7.7444 1.03467 16.0004C1.03467 24.2564 7.744 30.9657 16 30.9657C24.256 30.9657 30.9653 24.2564 30.9653 16.0004C30.9653 7.7444 24.256 1.03506 16 1.03506Z" fill="black"/>
</g>
<defs>
<clipPath id="clip0_48_2195">
<rect width="32" height="32" fill="white" transform="translate(0 0.000396729)"/>
</clipPath>
</defs>
</svg>
