<svg width="32" height="32" viewBox="0 0 32 32" fill="none" xmlns="http://www.w3.org/2000/svg">
<path d="M2.27437 16C2.27437 21.4331 5.4318 26.1284 10.0103 28.3534L3.46275 10.4138C2.70114 12.1209 2.27437 14.0101 2.27437 16Z" fill="black"/>
<path d="M25.2667 15.3073C25.2667 13.611 24.6574 12.4362 24.1348 11.5218C23.439 10.3911 22.7868 9.43363 22.7868 8.30297C22.7868 7.0412 23.7438 5.86667 25.0917 5.86667C25.1526 5.86667 25.2103 5.87424 25.2696 5.87764C22.8276 3.64035 19.574 2.27437 16.0005 2.27437C11.2052 2.27437 6.98635 4.7347 4.53203 8.46125C4.85406 8.47091 5.15756 8.4777 5.41534 8.4777C6.85106 8.4777 9.07346 8.30349 9.07346 8.30349C9.81339 8.25988 9.90062 9.34665 9.16148 9.43415C9.16148 9.43415 8.41789 9.52165 7.59047 9.565L12.589 24.4328L15.5928 15.4238L13.4543 9.56448C12.7151 9.52112 12.0149 9.43363 12.0149 9.43363C11.2752 9.39027 11.3619 8.25935 12.1016 8.30297C12.1016 8.30297 14.3684 8.47718 15.7171 8.47718C17.1526 8.47718 19.3753 8.30297 19.3753 8.30297C20.1157 8.25935 20.2027 9.34613 19.4633 9.43363C19.4633 9.43363 18.7181 9.52112 17.8923 9.56448L22.8526 24.3197L24.2217 19.7446C24.8151 17.846 25.2667 16.4824 25.2667 15.3073Z" fill="black"/>
<path d="M16.2413 17.2007L12.123 29.1677C13.3527 29.5292 14.6531 29.7269 16.0005 29.7269C17.599 29.7269 19.1318 29.4506 20.5587 28.9489C20.5218 28.8901 20.4884 28.8277 20.461 28.7598L16.2413 17.2007Z" fill="black"/>
<path d="M28.0447 9.41456C28.1037 9.85178 28.1371 10.3211 28.1371 10.826C28.1371 12.2189 27.877 13.7847 27.0934 15.7425L22.9007 27.8647C26.9814 25.4851 29.7262 21.0641 29.7262 16.0003C29.7264 13.6138 29.1168 11.3698 28.0447 9.41456Z" fill="black"/>
<path d="M16.0005 0C7.17806 0 0 7.17754 0 16C0 24.8235 7.17806 32.0008 16.0005 32.0008C24.8227 32.0008 32.0018 24.8235 32.0018 16C32.0016 7.17754 24.8227 0 16.0005 0ZM16.0005 31.2674C7.58263 31.2674 0.73366 24.4184 0.73366 16C0.73366 7.58211 7.58237 0.73366 16.0005 0.73366C24.4181 0.73366 31.2666 7.58211 31.2666 16C31.2666 24.4184 24.4181 31.2674 16.0005 31.2674Z" fill="black"/>
</svg>
